<svg width="2422" height="925" viewBox="0 0 2422 925" fill="none" xmlns="http://www.w3.org/2000/svg">
<path d="M14.8841 920.585L456.979 466.965C458.344 465.616 459.19 463.829 459.371 461.917C459.551 460.006 459.055 458.091 457.967 456.509C431.084 418.939 381.473 412.424 363.091 387.178C308.635 312.399 294.818 270.071 271.417 272.693C269.784 272.928 268.282 273.722 267.166 274.938L107.468 438.816C15.5892 533.016 2.38411 740.648 8.72854e-05 914.526C-0.0076657 916.256 0.501226 917.948 1.46284 919.386C2.42445 920.823 3.79439 921.94 5.39541 922.592C6.99643 923.244 8.75504 923.401 10.4461 923.043C12.1372 922.686 13.6833 921.83 14.8841 920.585V920.585Z" fill="#017CEE"/>
<path d="M919.667 909.391L466.5 466.823C465.151 465.453 463.362 464.604 461.449 464.423C459.536 464.242 457.62 464.742 456.038 465.834C418.506 492.76 411.997 542.404 386.776 560.804C312.072 615.314 269.787 629.146 272.406 652.57C272.644 654.199 273.436 655.697 274.648 656.809L438.361 816.667C532.467 908.637 739.894 921.857 913.598 924.243C915.318 924.244 916.998 923.733 918.426 922.774C919.855 921.815 920.965 920.451 921.616 918.858C922.267 917.264 922.43 915.513 922.083 913.827C921.736 912.141 920.895 910.597 919.667 909.391Z" fill="#00AD46"/>
<path d="M438.363 816.714C386.919 766.474 363.078 667.093 461.67 462.161C301.391 533.863 245.225 628.11 272.845 655.098L438.363 816.714Z" fill="#04D659"/>
<path d="M908.468 3.72134L466.39 457.342C465.023 458.69 464.174 460.477 463.993 462.39C463.813 464.302 464.312 466.217 465.402 467.798C492.301 505.368 541.879 511.883 560.276 537.128C614.732 611.908 628.566 654.235 651.951 651.613C653.585 651.38 655.087 650.586 656.201 649.368L815.899 485.491C907.778 391.291 920.985 183.659 923.369 9.78133C923.373 8.05141 922.859 6.35997 921.895 4.92395C920.932 3.48793 919.562 2.37266 917.961 1.72147C916.36 1.07028 914.601 0.912915 912.91 1.26917C911.219 1.62543 909.671 2.47942 908.468 3.72134V3.72134Z" fill="#00C7D4"/>
<path d="M815.979 485.492C765.789 536.988 666.507 560.851 461.764 462.161C533.394 622.599 627.546 678.821 654.508 651.173L815.979 485.492Z" fill="#11E1EE"/>
<path d="M3.66899 14.9154L456.836 457.435C458.184 458.801 459.971 459.649 461.881 459.83C463.791 460.011 465.702 459.514 467.282 458.425C504.815 431.5 511.324 381.856 536.545 363.456C611.249 308.945 653.534 295.113 650.915 271.689C650.676 270.055 649.885 268.553 648.673 267.434L484.96 107.576C390.854 15.6058 183.427 2.38658 9.72293 0.000176259C7.99125 -0.0108771 6.29572 0.498182 4.85603 1.46151C3.41634 2.42484 2.29905 3.79781 1.64717 5.40376C0.995303 7.0097 0.83871 8.77455 1.19916 10.47C1.55961 12.1655 2.42035 13.7143 3.66899 14.9154V14.9154Z" fill="#E43921"/>
<path fill-rule="evenodd" clip-rule="evenodd" d="M485.039 107.592C536.483 157.832 560.322 257.213 461.73 462.161C622.009 390.459 678.176 296.196 650.555 269.224L485.039 107.592Z" fill="#FF7557"/>
<path d="M107.469 438.831C157.659 387.335 256.94 363.471 461.684 462.161C390.054 301.723 295.901 245.501 268.94 273.149L107.469 438.831Z" fill="#0CB6FF"/>
<path d="M461.747 481.864C472.661 481.864 481.509 473.008 481.509 462.082C481.509 451.157 472.661 442.3 461.747 442.3C450.832 442.3 441.984 451.157 441.984 462.082C441.984 473.008 450.832 481.864 461.747 481.864Z" fill="#4A4848"/>
<path d="M1046.52 301.502C1045.6 301.479 1044.73 301.103 1044.08 300.451C1043.42 299.8 1043.05 298.923 1043.02 298.002C1042.99 297.353 1043.05 296.703 1043.2 296.07L1086.58 182.81C1086.94 181.627 1087.69 180.601 1088.7 179.902C1089.72 179.203 1090.95 178.872 1092.18 178.964H1104.07C1105.3 178.878 1106.52 179.211 1107.54 179.91C1108.56 180.608 1109.31 181.63 1109.67 182.81L1152.86 296.07L1153.21 298.002C1153.19 298.924 1152.81 299.803 1152.16 300.455C1151.51 301.107 1150.63 301.482 1149.71 301.502H1140.8C1139.73 301.571 1138.68 301.26 1137.82 300.624C1137.2 300.04 1136.72 299.319 1136.43 298.519L1126.81 273.666H1069.45L1059.84 298.519C1059.51 299.348 1058.97 300.075 1058.27 300.624C1057.47 301.241 1056.48 301.552 1055.48 301.502H1046.52ZM1121.73 258.61L1098.12 196.469L1074.52 258.61H1121.73ZM1173.83 334.756C1173.28 334.764 1172.73 334.66 1172.22 334.449C1171.71 334.238 1171.25 333.926 1170.87 333.531C1170.51 333.161 1170.24 332.722 1170.06 332.241C1169.87 331.761 1169.79 331.249 1169.82 330.736V214.556C1169.79 214.044 1169.87 213.531 1170.06 213.051C1170.24 212.57 1170.51 212.131 1170.87 211.761C1171.25 211.366 1171.71 211.053 1172.22 210.842C1172.73 210.632 1173.28 210.528 1173.83 210.536H1181.88C1182.93 210.583 1183.92 211.021 1184.67 211.765C1185.41 212.509 1185.85 213.505 1185.89 214.556V222.249C1189.17 217.792 1193.52 214.226 1198.52 211.873C1203.53 209.521 1209.04 208.457 1214.56 208.778C1219.73 208.398 1224.91 209.248 1229.68 211.256C1234.46 213.264 1238.68 216.375 1242.03 220.334C1248.52 228.917 1252.03 239.396 1252 250.164C1252.12 251.441 1252.18 253.424 1252.18 256.114C1252.18 258.804 1252.12 260.788 1252 262.065C1251.99 272.826 1248.49 283.293 1242.03 291.894C1238.67 295.834 1234.44 298.931 1229.67 300.938C1224.9 302.945 1219.73 303.805 1214.56 303.45C1209.14 303.703 1203.73 302.642 1198.8 300.357C1193.87 298.072 1189.56 294.631 1186.24 290.324V330.94C1186.26 331.453 1186.18 331.965 1186 332.445C1185.82 332.926 1185.54 333.365 1185.19 333.735C1184.84 334.139 1184.41 334.459 1183.92 334.671C1183.44 334.883 1182.91 334.982 1182.38 334.96L1173.83 334.756ZM1210.91 289.068C1214.31 289.367 1217.74 288.82 1220.89 287.475C1224.03 286.131 1226.79 284.03 1228.93 281.36C1233.04 275.391 1235.23 268.308 1235.21 261.059C1235.32 259.898 1235.38 258.207 1235.38 255.988C1235.38 233.935 1227.21 222.908 1210.88 222.908C1207.42 222.679 1203.96 223.293 1200.8 224.696C1197.63 226.098 1194.85 228.249 1192.7 230.963C1188.67 236.431 1186.41 243.008 1186.24 249.803L1186.05 256.46L1186.24 263.289C1186.36 269.881 1188.7 276.238 1192.89 281.328C1195.09 283.926 1197.86 285.977 1200.98 287.32C1204.11 288.663 1207.5 289.262 1210.89 289.068H1210.91ZM1299.18 303.198C1293.68 303.247 1288.24 302.049 1283.26 299.697C1278.63 297.587 1274.6 294.349 1271.55 290.277C1268.79 286.324 1267.32 281.613 1267.34 276.791C1267.29 273.126 1268.12 269.502 1269.76 266.223C1271.39 262.945 1273.79 260.108 1276.75 257.951C1284.37 252.463 1293.29 249.083 1302.63 248.154L1328.68 244.481V239.41C1328.68 227.509 1321.89 221.558 1308.3 221.558C1303.87 221.377 1299.5 222.536 1295.75 224.886C1292.72 226.754 1290.19 229.344 1288.41 232.423C1288.17 233.299 1287.68 234.088 1287.01 234.699C1286.73 234.952 1286.39 235.146 1286.03 235.267C1285.67 235.388 1285.29 235.436 1284.91 235.406H1277.38C1276.87 235.441 1276.35 235.365 1275.87 235.184C1275.39 235.003 1274.95 234.72 1274.59 234.356C1274.22 233.991 1273.94 233.554 1273.76 233.072C1273.58 232.589 1273.5 232.074 1273.54 231.56C1273.91 228.12 1275.24 224.854 1277.38 222.139C1280.45 218.115 1284.48 214.925 1289.1 212.86C1295.16 210.001 1301.81 208.624 1308.51 208.841C1313.6 208.343 1318.74 208.91 1323.6 210.508C1328.46 212.105 1332.94 214.698 1336.75 218.12C1342.5 224.276 1345.58 232.46 1345.33 240.885V297.609C1345.34 298.164 1345.24 298.715 1345.02 299.228C1344.81 299.742 1344.5 300.206 1344.1 300.592C1343.73 300.948 1343.3 301.226 1342.82 301.407C1342.34 301.587 1341.82 301.668 1341.31 301.644H1333.26C1332.72 301.703 1332.17 301.64 1331.66 301.459C1331.14 301.278 1330.67 300.984 1330.29 300.599C1329.9 300.213 1329.61 299.746 1329.42 299.231C1329.24 298.717 1329.18 298.167 1329.23 297.624V290.104C1326.33 294.116 1322.48 297.352 1318.03 299.525C1312.14 302.278 1305.66 303.555 1299.17 303.245L1299.18 303.198ZM1302.85 290.073C1306.28 290.199 1309.7 289.609 1312.89 288.342C1316.09 287.074 1318.98 285.157 1321.39 282.71C1323.97 279.786 1325.95 276.378 1327.21 272.683C1328.47 268.988 1328.99 265.08 1328.73 261.185V256.286L1308.45 259.269C1301.86 259.874 1295.47 261.905 1289.74 265.22C1287.87 266.228 1286.3 267.716 1285.2 269.532C1284.1 271.348 1283.5 273.425 1283.47 275.55C1283.39 277.706 1283.89 279.844 1284.9 281.748C1285.92 283.652 1287.41 285.256 1289.24 286.399C1293.32 288.927 1298.04 290.219 1302.84 290.12L1302.85 290.073ZM1407.04 303.198C1401.69 303.502 1396.34 302.728 1391.29 300.924C1386.25 299.12 1381.61 296.322 1377.67 292.695C1370.25 284.555 1366.25 273.877 1366.47 262.865L1366.3 255.863L1366.47 248.861C1366.24 237.919 1370.26 227.314 1377.67 219.266C1381.59 215.589 1386.21 212.747 1391.26 210.912C1396.31 209.077 1401.68 208.287 1407.04 208.59C1414.42 208.364 1421.73 209.926 1428.37 213.143C1433.61 215.658 1438.08 219.528 1441.31 224.353C1444.05 228.287 1445.67 232.886 1446.02 237.666C1446.09 238.183 1446.03 238.709 1445.85 239.197C1445.66 239.685 1445.36 240.119 1444.97 240.461C1444.14 241.168 1443.08 241.543 1441.99 241.513H1433.6C1432.66 241.581 1431.74 241.332 1430.96 240.807C1430.17 240.023 1429.58 239.065 1429.22 238.011C1427.82 233.22 1424.87 229.032 1420.83 226.111C1416.76 223.53 1412 222.249 1407.18 222.437C1403.99 222.298 1400.8 222.835 1397.83 224.011C1394.86 225.188 1392.17 226.978 1389.93 229.266C1385.27 235.02 1382.84 242.272 1383.11 249.677L1382.94 255.957L1383.11 261.907C1382.81 269.395 1385.23 276.737 1389.93 282.568C1392.18 284.829 1394.88 286.59 1397.85 287.737C1400.82 288.884 1404 289.391 1407.18 289.225C1411.98 289.407 1416.72 288.19 1420.83 285.724C1424.85 282.705 1427.79 278.472 1429.22 273.651C1429.58 272.597 1430.17 271.641 1430.96 270.856C1431.32 270.541 1431.74 270.301 1432.19 270.15C1432.64 269.999 1433.12 269.94 1433.6 269.977H1441.99C1442.54 269.966 1443.09 270.069 1443.61 270.28C1444.12 270.49 1444.58 270.804 1444.97 271.201C1445.36 271.543 1445.66 271.978 1445.85 272.465C1446.03 272.953 1446.09 273.479 1446.02 273.996C1445.63 278.763 1444.01 283.347 1441.31 287.294C1438.07 292.118 1433.61 295.988 1428.37 298.504C1421.76 301.813 1414.42 303.441 1407.03 303.245L1407.04 303.198ZM1471 301.44C1470.46 301.499 1469.91 301.436 1469.4 301.255C1468.88 301.074 1468.41 300.78 1468.03 300.395C1467.64 300.009 1467.35 299.542 1467.16 299.027C1466.98 298.512 1466.92 297.963 1466.97 297.42V181.241C1466.95 180.728 1467.03 180.216 1467.21 179.735C1467.39 179.255 1467.67 178.816 1468.02 178.446C1468.41 178.049 1468.87 177.736 1469.39 177.526C1469.9 177.315 1470.45 177.212 1471 177.222H1479.74C1480.79 177.261 1481.79 177.696 1482.54 178.441C1483.29 179.186 1483.73 180.186 1483.77 181.241V222.06C1486.93 217.927 1491 214.576 1495.66 212.264C1500.96 209.766 1506.78 208.565 1512.63 208.763C1517.51 208.489 1522.39 209.323 1526.9 211.201C1531.41 213.08 1535.44 215.955 1538.68 219.611C1545.27 227.613 1548.63 237.796 1548.09 248.154V297.515C1548.1 298.07 1548 298.62 1547.79 299.134C1547.58 299.647 1547.27 300.112 1546.87 300.498C1546.5 300.855 1546.06 301.132 1545.58 301.313C1545.1 301.493 1544.59 301.574 1544.08 301.549H1535.34C1534.8 301.606 1534.25 301.541 1533.74 301.36C1533.23 301.178 1532.76 300.883 1532.38 300.498C1531.99 300.113 1531.7 299.647 1531.52 299.134C1531.33 298.62 1531.27 298.072 1531.33 297.53V248.955C1531.77 241.993 1529.58 235.12 1525.21 229.691C1523.01 227.35 1520.33 225.524 1517.35 224.343C1514.36 223.162 1511.16 222.656 1507.96 222.861C1504.69 222.717 1501.42 223.266 1498.38 224.472C1495.33 225.679 1492.58 227.516 1490.3 229.863C1485.74 235.133 1483.42 241.98 1483.83 248.939V297.42C1483.84 297.975 1483.74 298.526 1483.53 299.04C1483.32 299.553 1483.01 300.017 1482.61 300.403C1482.24 300.76 1481.8 301.037 1481.32 301.218C1480.84 301.399 1480.33 301.48 1479.82 301.455L1471 301.44ZM1609.75 303.198C1604.44 303.449 1599.14 302.602 1594.17 300.711C1589.21 298.82 1584.69 295.926 1580.89 292.208C1573.41 283.824 1569.24 272.993 1569.17 261.75L1569 255.799L1569.17 250.022C1569.39 238.881 1573.61 228.191 1581.06 219.91C1589.1 212.516 1599.68 208.515 1610.6 208.744C1621.51 208.972 1631.92 213.411 1639.64 221.135C1647.17 230.531 1650.97 242.376 1650.31 254.402V257.385C1650.32 257.937 1650.21 258.486 1650 258.996C1649.79 259.507 1649.48 259.969 1649.08 260.353C1648.71 260.709 1648.28 260.986 1647.8 261.167C1647.32 261.347 1646.8 261.429 1646.29 261.405H1585.78V262.975C1585.93 270.015 1588.32 276.823 1592.6 282.411C1594.63 284.947 1597.21 286.976 1600.16 288.339C1603.1 289.701 1606.32 290.359 1609.56 290.261C1614.14 290.462 1618.68 289.375 1622.67 287.122C1625.66 285.367 1628.27 283.047 1630.37 280.291C1630.98 279.346 1631.75 278.517 1632.65 277.843C1633.58 277.424 1634.61 277.246 1635.63 277.325H1644.21C1645.16 277.293 1646.09 277.604 1646.83 278.203C1647.18 278.504 1647.45 278.881 1647.64 279.305C1647.82 279.73 1647.9 280.191 1647.88 280.653C1647.39 284.226 1645.66 287.512 1642.98 289.931C1639.2 293.985 1634.61 297.196 1629.51 299.352C1623.27 302.04 1616.54 303.367 1609.75 303.245V303.198ZM1633.7 249.284V248.766C1634.01 241.626 1631.64 234.629 1627.05 229.157C1624.83 226.729 1622.12 224.79 1619.11 223.463C1616.1 222.137 1612.85 221.452 1609.56 221.452C1606.27 221.452 1603.02 222.137 1600.01 223.463C1597 224.79 1594.29 226.729 1592.07 229.157C1587.7 234.73 1585.47 241.688 1585.8 248.766V249.284H1633.7Z" fill="#51504F"/>
<path d="M1044.01 300.451L1043.06 301.41L1044.01 300.451ZM1043.14 296.071L1041.88 295.584L1043.14 296.071ZM1086.52 182.812L1087.77 183.298L1086.52 182.812ZM1109.61 182.812L1108.34 183.267L1109.61 182.812ZM1152.8 296.071L1154.12 295.835C1154.13 295.757 1154.13 295.678 1154.12 295.6L1152.8 296.071ZM1153.14 298.002H1154.49V297.766L1153.14 298.002ZM1152.09 300.451L1153.04 301.41L1152.09 300.451ZM1137.76 300.624L1136.8 301.582L1136.9 301.661L1137.76 300.624ZM1136.36 298.52L1137.63 298.097L1136.36 298.52ZM1126.75 273.667L1128 273.18C1127.91 272.927 1127.73 272.709 1127.51 272.555C1127.29 272.401 1127.02 272.318 1126.75 272.317V273.667ZM1069.39 273.667V272.317C1069.12 272.318 1068.85 272.401 1068.63 272.555C1068.41 272.709 1068.23 272.927 1068.14 273.18L1069.39 273.667ZM1059.78 298.52L1058.52 298.034L1059.78 298.52ZM1058.21 300.624L1059.07 301.661L1058.21 300.624ZM1121.68 258.611V259.961C1121.9 259.96 1122.11 259.906 1122.3 259.804C1122.5 259.703 1122.66 259.557 1122.78 259.378C1122.91 259.199 1122.98 258.993 1123.01 258.778C1123.04 258.562 1123.01 258.343 1122.94 258.14L1121.68 258.611ZM1098.08 196.47L1099.33 195.999C1099.23 195.747 1099.06 195.531 1098.84 195.379C1098.61 195.227 1098.35 195.144 1098.08 195.144C1097.81 195.144 1097.54 195.227 1097.32 195.379C1097.1 195.531 1096.92 195.747 1096.82 195.999L1098.08 196.47ZM1074.47 258.611L1073.22 258.14C1073.14 258.343 1073.12 258.562 1073.14 258.778C1073.17 258.993 1073.25 259.199 1073.37 259.378C1073.49 259.557 1073.66 259.703 1073.85 259.804C1074.04 259.906 1074.26 259.96 1074.47 259.961V258.611ZM1046.49 300.153C1046.2 300.165 1045.91 300.112 1045.63 299.998C1045.36 299.884 1045.12 299.712 1044.92 299.494L1043.01 301.393C1043.45 301.852 1043.98 302.216 1044.56 302.465C1045.15 302.713 1045.78 302.839 1046.41 302.837L1046.49 300.153ZM1044.92 299.494C1044.71 299.296 1044.53 299.052 1044.42 298.781C1044.31 298.51 1044.25 298.217 1044.26 297.923H1041.58C1041.58 298.559 1041.71 299.189 1041.96 299.775C1042.2 300.36 1042.57 300.89 1043.03 301.331L1044.92 299.494ZM1044.26 297.923C1044.23 297.398 1044.27 296.87 1044.37 296.354L1041.82 295.506C1041.62 296.274 1041.53 297.068 1041.57 297.861L1044.26 297.923ZM1044.34 296.479L1087.71 183.22L1085.2 182.261L1041.83 295.522L1044.34 296.479ZM1087.73 183.188C1088 182.293 1088.55 181.507 1089.3 180.943C1090.11 180.428 1091.06 180.176 1092.02 180.22V177.52C1090.52 177.474 1089.03 177.891 1087.77 178.714C1086.55 179.591 1085.64 180.833 1085.17 182.261L1087.73 183.188ZM1092.05 180.22H1103.94V177.52H1092.05V180.22ZM1103.94 180.22C1104.91 180.173 1105.87 180.425 1106.69 180.943C1107.44 181.507 1107.98 182.293 1108.26 183.188L1110.78 182.261C1110.31 180.832 1109.4 179.59 1108.18 178.714C1106.91 177.888 1105.42 177.471 1103.91 177.52L1103.94 180.22ZM1108.29 183.203L1151.48 296.464L1153.99 295.506L1110.8 182.246L1108.29 183.203ZM1151.42 296.244L1151.76 298.175L1154.42 297.689L1154.07 295.757L1151.42 296.244ZM1151.75 297.923C1151.76 298.217 1151.71 298.51 1151.59 298.781C1151.48 299.052 1151.31 299.295 1151.09 299.494L1152.99 301.393C1153.45 300.952 1153.81 300.424 1154.06 299.838C1154.31 299.253 1154.43 298.623 1154.43 297.987L1151.75 297.923ZM1151.09 299.494C1150.89 299.711 1150.65 299.881 1150.38 299.995C1150.11 300.109 1149.82 300.163 1149.52 300.153V302.837C1150.16 302.839 1150.79 302.713 1151.37 302.465C1151.96 302.216 1152.49 301.852 1152.93 301.393L1151.09 299.494ZM1149.52 300.153H1140.61V302.837H1149.52V300.153ZM1140.61 300.153C1139.86 300.218 1139.11 300.018 1138.5 299.588L1136.77 301.661C1137.87 302.501 1139.23 302.923 1140.61 302.854V300.153ZM1138.59 299.667C1138.11 299.235 1137.74 298.698 1137.51 298.097L1134.97 298.944C1135.33 299.941 1135.92 300.839 1136.69 301.566L1138.59 299.667ZM1137.49 298.097L1127.88 273.227L1125.37 274.201L1134.98 299.054L1137.49 298.097ZM1126.62 272.38H1069.27V275.064H1126.62V272.38ZM1068.01 273.244L1058.38 298.112L1060.89 299.086L1070.51 274.233L1068.01 273.244ZM1058.36 298.159C1058.12 298.779 1057.72 299.321 1057.19 299.729L1058.93 301.77C1059.82 301.065 1060.5 300.132 1060.91 299.07L1058.36 298.159ZM1057.2 299.729C1056.65 300.145 1055.95 300.346 1055.26 300.294V302.979C1056.58 303.03 1057.88 302.607 1058.91 301.786L1057.2 299.729ZM1055.26 300.294H1046.34V302.979H1055.26V300.294ZM1122.8 258.265L1099.19 196.125L1096.68 197.083L1120.29 259.224L1122.8 258.265ZM1096.67 196.125L1073.06 258.265L1075.57 259.224L1099.18 197.083L1096.67 196.125ZM1074.32 260.102H1121.53V257.418H1074.32V260.102ZM1170.67 333.688L1169.72 334.646L1170.67 333.688ZM1170.67 211.841L1171.62 212.798L1170.67 211.841ZM1184.48 211.841L1183.46 212.72L1183.62 212.861L1184.48 211.841ZM1185.71 222.344H1184.36C1184.36 222.628 1184.45 222.904 1184.62 223.133C1184.78 223.362 1185.02 223.533 1185.29 223.622C1185.55 223.71 1185.84 223.712 1186.11 223.626C1186.38 223.541 1186.62 223.372 1186.79 223.144L1185.71 222.344ZM1241.84 220.412L1240.79 221.245L1241.84 220.412ZM1251.82 250.243H1250.47H1251.82ZM1251.82 262.143L1250.48 262.033L1251.82 262.143ZM1241.84 291.974L1242.89 292.821L1241.84 291.974ZM1186.05 290.403L1187.12 289.587C1186.95 289.365 1186.71 289.202 1186.44 289.121C1186.17 289.04 1185.89 289.045 1185.62 289.134C1185.35 289.224 1185.12 289.395 1184.96 289.622C1184.79 289.85 1184.71 290.122 1184.7 290.403H1186.05ZM1185 333.814L1184.04 332.872L1185 333.814ZM1228.71 281.643L1227.63 280.842L1228.71 281.643ZM1234.99 261.343L1233.65 261.217V261.295L1234.99 261.343ZM1192.5 231.23L1191.43 230.414L1192.5 231.23ZM1186.02 250.07H1184.67H1186.02ZM1185.85 256.711H1184.51H1185.85ZM1186.02 263.54H1184.67H1186.02ZM1192.67 281.58L1193.71 280.732L1192.67 281.58ZM1173.6 333.625C1173.22 333.635 1172.85 333.566 1172.5 333.423C1172.15 333.28 1171.84 333.065 1171.57 332.793L1169.68 334.694C1170.19 335.207 1170.8 335.611 1171.48 335.881C1172.15 336.151 1172.87 336.281 1173.6 336.263V333.625ZM1171.57 332.793C1171.34 332.546 1171.17 332.254 1171.05 331.936C1170.94 331.617 1170.89 331.279 1170.92 330.941H1168.22C1168.19 331.632 1168.31 332.32 1168.56 332.965C1168.8 333.61 1169.18 334.199 1169.66 334.694L1171.57 332.793ZM1170.92 330.941V214.761H1168.22V330.941H1170.92ZM1170.92 214.761C1170.89 214.423 1170.94 214.085 1171.05 213.766C1171.17 213.447 1171.34 213.155 1171.57 212.908L1169.68 211.008C1169.19 211.503 1168.82 212.091 1168.57 212.736C1168.32 213.381 1168.21 214.07 1168.23 214.761H1170.92ZM1171.57 212.908C1171.84 212.637 1172.15 212.422 1172.5 212.279C1172.85 212.135 1173.22 212.067 1173.6 212.077V209.376C1172.87 209.359 1172.15 209.489 1171.48 209.759C1170.8 210.028 1170.19 210.432 1169.68 210.946L1171.57 212.908ZM1173.6 212.077H1181.64V209.376H1173.6V212.077ZM1181.64 212.077C1181.98 212.056 1182.31 212.112 1182.62 212.243C1182.93 212.374 1183.2 212.575 1183.42 212.83L1185.46 211.087C1184.98 210.536 1184.4 210.098 1183.73 209.805C1183.07 209.511 1182.35 209.37 1181.63 209.392L1181.64 212.077ZM1183.57 212.987C1183.83 213.204 1184.03 213.477 1184.16 213.785C1184.29 214.093 1184.35 214.427 1184.33 214.761H1187.01C1187.03 214.039 1186.89 213.321 1186.59 212.661C1186.3 212.001 1185.86 211.415 1185.31 210.946L1183.57 212.987ZM1184.33 214.761V222.453H1187.01V214.761H1184.33ZM1186.76 223.255C1189.91 218.968 1194.09 215.54 1198.91 213.283C1203.73 211.026 1209.04 210.012 1214.35 210.333V207.648C1208.6 207.316 1202.87 208.426 1197.67 210.878C1192.46 213.329 1187.95 217.045 1184.55 221.685L1186.76 223.255ZM1214.35 210.333C1219.3 209.95 1224.28 210.745 1228.86 212.655C1233.45 214.565 1237.52 217.536 1240.74 221.324L1242.86 219.659C1239.39 215.543 1235 212.305 1230.05 210.21C1225.09 208.115 1219.71 207.221 1214.35 207.602V210.333ZM1240.74 221.324C1247.05 229.66 1250.45 239.835 1250.42 250.29L1253.1 250.18C1253.11 239.149 1249.5 228.417 1242.84 219.628L1240.74 221.324ZM1250.42 250.368C1250.53 251.593 1250.59 253.508 1250.59 256.209H1253.27C1253.27 253.524 1253.28 251.498 1253.09 250.133L1250.42 250.368ZM1250.59 256.209C1250.59 258.894 1250.59 260.825 1250.42 262.049L1253.09 262.285C1253.21 260.935 1253.27 258.894 1253.27 256.209H1250.59ZM1250.42 262.112C1250.41 272.566 1247.01 282.734 1240.74 291.094L1242.84 292.759C1249.47 283.956 1253.07 273.242 1253.1 262.222L1250.42 262.112ZM1240.74 291.079C1237.51 294.848 1233.43 297.806 1228.85 299.714C1224.27 301.623 1219.3 302.43 1214.35 302.069V304.753C1219.71 305.102 1225.07 304.194 1230.02 302.101C1234.97 300.007 1239.36 296.787 1242.84 292.695L1240.74 291.079ZM1214.35 302.069C1209.13 302.33 1203.92 301.324 1199.17 299.138C1194.42 296.951 1190.27 293.647 1187.07 289.508L1184.94 291.079C1188.38 295.551 1192.85 299.127 1197.97 301.504C1203.08 303.882 1208.69 304.991 1214.33 304.738L1214.35 302.069ZM1184.67 290.294V330.909H1187.37V290.294H1184.67ZM1184.67 330.909C1184.69 331.247 1184.65 331.586 1184.53 331.905C1184.42 332.224 1184.24 332.515 1184.01 332.762L1185.91 334.662C1186.39 334.167 1186.77 333.579 1187.02 332.934C1187.26 332.289 1187.38 331.6 1187.35 330.909H1184.67ZM1183.95 332.84C1183.73 333.096 1183.46 333.298 1183.14 333.429C1182.83 333.559 1182.5 333.617 1182.16 333.594V336.295C1182.89 336.317 1183.61 336.176 1184.27 335.883C1184.93 335.589 1185.52 335.15 1185.99 334.599L1183.95 332.84ZM1182.16 333.594H1173.6V336.295H1182.16V333.594ZM1210.66 290.592C1214.28 290.893 1217.91 290.297 1221.25 288.857C1224.58 287.416 1227.5 285.176 1229.76 282.334L1227.6 280.764C1225.59 283.258 1222.99 285.215 1220.03 286.461C1217.08 287.707 1213.87 288.204 1210.68 287.907L1210.66 290.592ZM1229.75 282.349C1234.03 276.164 1236.32 268.819 1236.32 261.295L1233.64 261.186C1233.66 268.17 1231.56 274.996 1227.6 280.748L1229.75 282.349ZM1236.3 261.374C1236.43 260.134 1236.49 258.391 1236.49 256.162H1233.8C1233.8 258.36 1233.79 260.008 1233.62 261.107L1236.3 261.374ZM1236.49 256.162C1237.12 247.161 1234.88 238.193 1230.11 230.539C1227.84 227.585 1224.88 225.236 1221.48 223.697C1218.09 222.159 1214.38 221.478 1210.66 221.716V224.401C1213.95 224.169 1217.24 224.752 1220.25 226.1C1223.26 227.447 1225.89 229.517 1227.91 232.125C1232.34 239.318 1234.39 247.721 1233.78 256.146L1236.49 256.162ZM1210.66 221.732C1207 221.503 1203.33 222.165 1199.98 223.66C1196.62 225.155 1193.68 227.44 1191.4 230.32L1193.53 231.889C1195.56 229.343 1198.18 227.328 1201.16 226.018C1204.14 224.708 1207.4 224.142 1210.64 224.369L1210.66 221.732ZM1191.4 230.32C1187.19 236.023 1184.83 242.887 1184.66 249.976L1187.35 250.102C1187.53 243.545 1189.72 237.2 1193.63 231.936L1191.4 230.32ZM1184.66 250.007L1184.48 256.664H1187.17L1187.34 250.007H1184.66ZM1184.48 256.727L1184.66 263.557H1187.35L1187.18 256.727H1184.48ZM1184.66 263.572C1184.79 270.455 1187.24 277.093 1191.6 282.412L1193.69 280.701C1189.71 275.819 1187.5 269.732 1187.42 263.431L1184.66 263.572ZM1191.6 282.412C1193.93 285.158 1196.86 287.326 1200.16 288.748C1203.47 290.17 1207.05 290.806 1210.64 290.607V287.923C1207.45 288.123 1204.25 287.576 1201.31 286.325C1198.36 285.074 1195.75 283.154 1193.67 280.716L1191.6 282.412ZM1283.01 299.949L1283.59 298.74L1283.01 299.949ZM1271.3 290.529L1270.2 291.298L1271.3 290.529ZM1276.55 258.14L1277.37 259.207L1276.55 258.14ZM1302.43 248.344L1302.62 249.677L1302.43 248.344ZM1328.48 244.67L1328.67 246.003C1328.99 245.958 1329.29 245.798 1329.5 245.553C1329.71 245.308 1329.83 244.995 1329.83 244.67H1328.48ZM1295.43 225.06L1296.16 226.191L1295.43 225.06ZM1288.09 232.596L1286.92 231.936C1286.88 232.012 1286.85 232.091 1286.82 232.172L1288.09 232.596ZM1286.7 234.872L1285.85 233.82L1285.74 233.915L1286.7 234.872ZM1274.28 234.527L1273.26 235.406L1273.4 235.548L1274.28 234.527ZM1273.22 231.732H1271.88H1273.22ZM1277.07 222.313L1275.97 221.543L1277.07 222.313ZM1288.78 213.034L1289.38 214.243L1288.78 213.034ZM1336.35 218.277L1335.37 219.189L1336.35 218.277ZM1343.69 300.734L1344.64 301.691L1343.69 300.734ZM1329.88 300.734L1328.86 301.614C1328.9 301.668 1328.94 301.715 1329 301.755L1329.88 300.734ZM1328.83 290.231H1330.17C1330.17 289.947 1330.07 289.673 1329.9 289.447C1329.73 289.221 1329.49 289.054 1329.22 288.971C1328.95 288.887 1328.66 288.891 1328.39 288.982C1328.13 289.073 1327.89 289.247 1327.73 289.477L1328.83 290.231ZM1317.63 299.651L1317 298.457L1317.63 299.651ZM1321.13 283.025L1320.15 282.083L1321.13 283.025ZM1328.47 256.585H1329.81C1329.81 256.389 1329.77 256.195 1329.69 256.017C1329.61 255.839 1329.49 255.681 1329.34 255.554C1329.19 255.427 1329.02 255.335 1328.83 255.282C1328.64 255.23 1328.44 255.22 1328.25 255.252L1328.47 256.585ZM1308.19 259.553L1308.37 260.887L1308.19 259.553ZM1289.47 265.503L1290.2 266.634L1289.47 265.503ZM1288.96 286.682L1288.22 287.798L1288.96 286.682ZM1298.92 302.147C1293.61 302.195 1288.37 301.04 1283.58 298.772L1282.42 301.205C1287.57 303.642 1293.2 304.881 1298.9 304.832L1298.92 302.147ZM1283.58 298.772C1279.14 296.743 1275.29 293.634 1272.36 289.729L1270.2 291.298C1273.38 295.562 1277.58 298.958 1282.42 301.174L1283.58 298.772ZM1272.39 289.775C1269.79 286.049 1268.4 281.606 1268.43 277.059H1265.73C1265.7 282.15 1267.25 287.124 1270.17 291.298L1272.39 289.775ZM1268.43 277.059C1268.37 273.586 1269.15 270.152 1270.7 267.047C1272.26 263.942 1274.54 261.258 1277.35 259.224L1275.7 257.104C1272.57 259.39 1270.02 262.397 1268.29 265.873C1266.56 269.348 1265.68 273.19 1265.74 277.074L1268.43 277.059ZM1277.35 259.207C1284.78 253.864 1293.48 250.577 1302.59 249.677L1302.21 247.009C1292.64 247.97 1283.49 251.447 1275.69 257.088L1277.35 259.207ZM1302.59 249.677L1328.64 246.003L1328.26 243.335L1302.19 247.009L1302.59 249.677ZM1329.8 244.67V239.599H1327.12V244.67H1329.8ZM1329.8 239.599C1329.99 236.937 1329.58 234.266 1328.62 231.777C1327.66 229.289 1326.16 227.044 1324.23 225.202C1319.58 221.687 1313.81 219.98 1308 220.397V223.097C1313.16 222.685 1318.29 224.152 1322.46 227.227C1324.11 228.812 1325.39 230.745 1326.2 232.884C1327.01 235.023 1327.34 237.316 1327.16 239.599H1329.8ZM1308 220.397C1303.29 220.208 1298.64 221.45 1294.65 223.961L1296.22 226.191C1299.76 223.969 1303.89 222.873 1308.06 223.05L1308 220.397ZM1294.68 223.945C1291.44 225.919 1288.75 228.672 1286.84 231.953L1289.19 233.271C1290.87 230.386 1293.24 227.964 1296.09 226.222L1294.68 223.945ZM1286.84 232.172C1286.67 232.8 1286.34 233.37 1285.87 233.82L1287.55 235.925C1288.42 235.151 1289.06 234.143 1289.38 233.02L1286.84 232.172ZM1285.77 233.93C1285.44 234.176 1285.03 234.282 1284.63 234.228V236.913C1285.18 236.942 1285.74 236.86 1286.26 236.671C1286.78 236.482 1287.26 236.191 1287.67 235.814L1285.77 233.93ZM1284.63 234.228H1277.1V236.913H1284.63V234.228ZM1277.1 234.228C1276.39 234.236 1275.71 233.979 1275.19 233.507L1273.43 235.548C1274.44 236.437 1275.75 236.922 1277.1 236.913V234.228ZM1275.33 233.648C1274.85 233.12 1274.58 232.431 1274.59 231.717H1271.91C1271.9 233.067 1272.38 234.374 1273.27 235.391L1275.33 233.648ZM1274.59 231.779C1274.96 228.585 1276.2 225.557 1278.2 223.035L1276 221.465C1273.7 224.399 1272.28 227.927 1271.91 231.638L1274.59 231.779ZM1278.2 223.05C1281.14 219.206 1284.99 216.161 1289.41 214.195L1288.23 211.778C1283.41 213.939 1279.21 217.275 1276 221.481L1278.2 223.05ZM1289.43 214.195C1295.31 211.427 1301.76 210.098 1308.25 210.318V207.633C1301.34 207.416 1294.47 208.847 1288.22 211.809L1289.43 214.195ZM1308.25 210.318C1313.14 209.832 1318.08 210.366 1322.76 211.888C1327.43 213.409 1331.74 215.885 1335.41 219.157L1337.39 217.335C1333.47 213.787 1328.85 211.093 1323.84 209.423C1318.82 207.753 1313.51 207.143 1308.25 207.633V210.318ZM1335.43 219.172C1340.94 225.078 1343.89 232.932 1343.63 241.011H1346.31C1346.57 232.248 1343.36 223.738 1337.37 217.335L1335.43 219.172ZM1343.63 241.011V297.736H1346.31V241.011H1343.63ZM1343.63 297.736C1343.64 298.113 1343.57 298.487 1343.43 298.836C1343.29 299.185 1343.07 299.5 1342.8 299.76L1344.7 301.661C1345.21 301.146 1345.61 300.533 1345.88 299.858C1346.15 299.184 1346.28 298.462 1346.27 297.736H1343.63ZM1342.8 299.76C1342.55 299.992 1342.26 300.169 1341.94 300.283C1341.62 300.396 1341.29 300.443 1340.95 300.42V303.105C1341.64 303.13 1342.33 303.015 1342.97 302.766C1343.62 302.518 1344.2 302.142 1344.7 301.661L1342.8 299.76ZM1340.95 300.42H1332.9V303.105H1340.95V300.42ZM1332.9 300.42C1332.14 300.444 1331.39 300.188 1330.8 299.698L1329.06 301.739C1330.13 302.654 1331.5 303.145 1332.9 303.12V300.42ZM1330.96 299.839C1330.46 299.256 1330.19 298.505 1330.22 297.736H1327.54C1327.51 299.142 1327.99 300.51 1328.9 301.582L1330.96 299.839ZM1330.22 297.736V290.215H1327.54V297.736H1330.22ZM1327.78 289.446C1325 293.287 1321.32 296.387 1317.06 298.474L1318.3 300.86C1322.95 298.577 1326.96 295.186 1329.99 290.985L1327.78 289.446ZM1317.06 298.474C1311.42 301.146 1305.22 302.416 1298.98 302.178V304.863C1305.65 305.107 1312.29 303.733 1318.32 300.86L1317.06 298.474ZM1302.65 291.738C1306.26 291.866 1309.86 291.243 1313.22 289.908C1316.57 288.573 1319.62 286.555 1322.16 283.982L1320.23 282.098C1317.94 284.414 1315.2 286.227 1312.17 287.422C1309.14 288.617 1305.9 289.167 1302.65 289.038V291.738ZM1322.16 283.982C1324.86 280.931 1326.94 277.376 1328.26 273.521C1329.59 269.665 1330.13 265.585 1329.88 261.516H1327.2C1327.45 265.239 1326.97 268.976 1325.77 272.512C1324.58 276.047 1322.69 279.311 1320.23 282.114L1322.16 283.982ZM1329.88 261.516V256.617H1327.2V261.516H1329.88ZM1328.31 255.235L1308.03 258.203L1308.42 260.872L1328.7 257.904L1328.31 255.235ZM1308.03 258.203C1301.24 258.838 1294.67 260.943 1288.77 264.373L1290.26 266.618C1295.83 263.419 1302.02 261.463 1308.42 260.887L1308.03 258.203ZM1288.78 264.357C1286.72 265.482 1284.99 267.136 1283.78 269.15C1282.56 271.164 1281.9 273.466 1281.87 275.819H1284.56C1284.6 273.916 1285.15 272.058 1286.15 270.44C1287.14 268.821 1288.56 267.502 1290.24 266.618L1288.78 264.357ZM1281.87 275.819C1281.79 278.195 1282.34 280.549 1283.46 282.647C1284.58 284.745 1286.22 286.516 1288.23 287.781L1289.72 285.552C1288.08 284.53 1286.74 283.091 1285.83 281.382C1284.92 279.673 1284.48 277.754 1284.55 275.819H1281.87ZM1288.27 287.813C1292.58 290.466 1297.57 291.813 1302.63 291.691V289.006C1298.09 289.123 1293.6 287.918 1289.72 285.536L1288.27 287.813ZM1377.45 292.978L1376.49 293.92L1377.45 292.978ZM1366.25 263.149H1364.92H1366.25ZM1366.08 256.146H1364.74H1366.08ZM1366.25 249.144H1364.92H1366.25ZM1377.45 219.549L1378.4 220.507L1377.45 219.549ZM1428.17 213.427L1427.54 214.62L1428.17 213.427ZM1441.11 224.62L1439.96 225.343L1441.11 224.62ZM1445.82 237.934H1444.47H1445.82ZM1444.76 240.728L1445.64 241.749L1444.76 240.728ZM1430.77 241.074L1431.62 240.022L1430.77 241.074ZM1429.02 238.279L1427.75 238.735L1429.02 238.279ZM1420.63 226.378L1419.87 227.494L1420.63 226.378ZM1389.67 229.519L1388.69 228.593L1389.67 229.519ZM1382.84 249.928H1381.49H1382.84ZM1382.67 256.209H1381.32H1382.67ZM1382.84 262.16H1381.49H1382.84ZM1389.67 282.82L1388.69 283.747L1389.67 282.82ZM1420.63 285.961L1421.35 287.09L1420.63 285.961ZM1429.02 273.887L1427.78 273.369L1429.02 273.887ZM1430.77 271.092L1431.62 272.145L1431.73 272.05L1430.77 271.092ZM1444.76 271.437L1443.81 272.38L1444.76 271.437ZM1445.82 274.233L1444.48 274.091L1445.82 274.233ZM1441.11 287.53L1439.98 286.808L1441.11 287.53ZM1428.17 298.74L1427.54 297.547L1428.17 298.74ZM1406.84 301.88C1401.66 302.186 1396.48 301.448 1391.59 299.712C1386.7 297.975 1382.21 295.275 1378.39 291.77L1376.51 293.685C1380.58 297.437 1385.36 300.334 1390.56 302.205C1395.77 304.076 1401.3 304.884 1406.82 304.58L1406.84 301.88ZM1378.4 291.785C1371.25 283.899 1367.38 273.566 1367.6 262.913L1364.92 263.007C1364.72 274.327 1368.86 285.294 1376.49 293.654L1378.4 291.785ZM1367.6 262.928L1367.42 255.926H1364.74L1364.92 262.928H1367.6ZM1367.42 255.989L1367.6 248.987H1364.92L1364.74 255.989H1367.42ZM1367.6 249.003C1367.36 238.402 1371.23 228.121 1378.4 220.318L1376.49 218.419C1368.84 226.703 1364.69 237.629 1364.92 248.908L1367.6 249.003ZM1378.4 220.318C1382.2 216.766 1386.68 214.023 1391.57 212.256C1396.46 210.488 1401.65 209.733 1406.84 210.035V207.35C1401.3 207.047 1395.75 207.871 1390.54 209.774C1385.33 211.676 1380.55 214.618 1376.51 218.419L1378.4 220.318ZM1406.84 210.035C1413.99 209.812 1421.1 211.32 1427.54 214.431L1428.78 212.045C1421.95 208.724 1414.42 207.108 1406.82 207.335L1406.84 210.035ZM1427.54 214.431C1432.56 216.833 1436.85 220.535 1439.96 225.154L1442.24 223.725C1438.88 218.699 1434.23 214.666 1428.78 212.045L1427.54 214.431ZM1439.98 225.185C1442.57 228.895 1444.13 233.232 1444.48 237.745L1447.17 237.604C1446.8 232.588 1445.09 227.762 1442.22 223.631L1439.98 225.185ZM1444.48 237.887C1444.53 238.177 1444.5 238.472 1444.39 238.747C1444.29 239.021 1444.12 239.266 1443.9 239.457L1445.66 241.498C1446.23 241.024 1446.68 240.413 1446.95 239.721C1447.23 239.029 1447.32 238.28 1447.23 237.541L1444.48 237.887ZM1443.9 239.457C1443.31 239.946 1442.57 240.203 1441.8 240.179V242.864C1443.21 242.89 1444.58 242.399 1445.66 241.482L1443.9 239.457ZM1441.8 240.179H1433.41V242.864H1441.8V240.179ZM1433.41 240.179C1432.78 240.241 1432.16 240.098 1431.62 239.771L1429.94 241.874C1430.95 242.596 1432.17 242.952 1433.41 242.88V240.179ZM1431.62 239.771C1431.01 239.125 1430.55 238.353 1430.27 237.51L1427.79 238.546C1428.23 239.812 1428.97 240.953 1429.94 241.874L1431.62 239.771ZM1430.3 237.573C1428.8 232.508 1425.66 228.089 1421.36 225.013L1419.91 227.273C1423.69 230.037 1426.45 233.988 1427.75 238.499L1430.3 237.573ZM1421.39 225.013C1417.1 222.279 1412.08 220.915 1407 221.103V223.788C1411.54 223.604 1416.04 224.802 1419.89 227.227L1421.39 225.013ZM1407 221.103C1403.61 220.955 1400.23 221.525 1397.08 222.775C1393.93 224.025 1391.08 225.928 1388.71 228.357L1390.65 230.21C1392.77 228.046 1395.32 226.356 1398.14 225.252C1400.96 224.147 1403.98 223.654 1407 223.804V221.103ZM1388.71 228.357C1383.81 234.366 1381.25 241.955 1381.53 249.709L1384.21 249.803C1383.92 242.701 1386.21 235.735 1390.65 230.194L1388.71 228.357ZM1381.53 249.724L1381.35 256.005H1384.04L1384.21 249.724H1381.53ZM1381.35 256.099L1381.53 262.049L1384.21 261.971L1384.04 256.02L1381.35 256.099ZM1381.53 262.065C1381.23 269.874 1383.79 277.525 1388.71 283.59L1390.65 281.737C1386.19 276.138 1383.9 269.112 1384.21 261.955L1381.53 262.065ZM1388.71 283.59C1391.09 285.99 1393.95 287.861 1397.1 289.081C1400.25 290.301 1403.62 290.843 1407 290.67V287.97C1403.98 288.137 1400.97 287.664 1398.15 286.582C1395.34 285.499 1392.78 283.832 1390.65 281.69L1388.71 283.59ZM1407 290.67C1412.05 290.851 1417.04 289.558 1421.36 286.95L1419.91 284.689C1416.01 287.012 1411.53 288.152 1407 287.97V290.67ZM1421.39 286.933C1425.66 283.753 1428.78 279.283 1430.3 274.186L1427.76 273.291C1426.44 277.838 1423.69 281.838 1419.92 284.704L1421.39 286.933ZM1430.27 274.264C1430.55 273.422 1431.01 272.65 1431.62 272.003L1429.94 269.899C1428.97 270.825 1428.23 271.972 1427.79 273.244L1430.27 274.264ZM1431.73 271.894C1431.97 271.705 1432.23 271.564 1432.52 271.481C1432.81 271.397 1433.11 271.372 1433.41 271.407V268.722C1432.76 268.683 1432.11 268.775 1431.49 268.994C1430.88 269.212 1430.31 269.552 1429.83 269.993L1431.73 271.894ZM1433.41 271.407H1441.8V268.722H1433.41V271.407ZM1441.8 271.407C1442.18 271.397 1442.55 271.466 1442.9 271.609C1443.25 271.752 1443.56 271.967 1443.82 272.238L1445.72 270.339C1445.21 269.827 1444.59 269.424 1443.92 269.154C1443.25 268.884 1442.53 268.753 1441.8 268.769V271.407ZM1443.9 272.302C1444.12 272.493 1444.29 272.736 1444.39 273.011C1444.5 273.285 1444.53 273.582 1444.48 273.871L1447.15 274.139C1447.24 273.4 1447.15 272.649 1446.87 271.958C1446.6 271.266 1446.15 270.656 1445.58 270.182L1443.9 272.302ZM1444.48 274.012C1444.11 278.552 1442.55 282.915 1439.96 286.667L1442.22 288.111C1445.05 283.968 1446.76 279.157 1447.17 274.154L1444.48 274.012ZM1439.96 286.667C1436.85 291.286 1432.56 294.989 1427.54 297.39L1428.78 299.777C1434.23 297.153 1438.87 293.12 1442.24 288.096L1439.96 286.667ZM1427.53 297.406C1421.09 300.539 1413.98 302.048 1406.82 301.802V304.487C1414.42 304.739 1421.96 303.122 1428.78 299.777L1427.53 297.406ZM1467.8 300.341L1466.79 301.221L1466.94 301.362L1467.8 300.341ZM1467.8 178.321L1468.76 179.263L1467.8 178.321ZM1482.33 178.321L1481.31 179.2L1481.45 179.342L1482.33 178.321ZM1483.55 221.904H1482.22C1482.22 222.183 1482.31 222.453 1482.47 222.679C1482.63 222.904 1482.86 223.074 1483.13 223.165C1483.39 223.257 1483.67 223.264 1483.94 223.187C1484.21 223.111 1484.44 222.953 1484.62 222.736L1483.55 221.904ZM1495.44 212.107L1496.04 213.317L1495.44 212.107ZM1538.46 219.455L1537.44 220.335L1538.46 219.455ZM1546.68 300.326L1545.72 299.384L1546.68 300.326ZM1532.17 300.326L1531.15 301.205L1531.29 301.346L1532.17 300.326ZM1525.01 229.676L1523.99 230.555L1525.01 229.676ZM1490.03 229.848L1489.06 228.923L1490.03 229.848ZM1482.34 300.389L1481.39 299.447L1482.34 300.389ZM1470.8 300.09C1470.04 300.114 1469.29 299.858 1468.7 299.369L1466.94 301.41C1468.01 302.325 1469.38 302.815 1470.79 302.79L1470.8 300.09ZM1468.86 299.509C1468.37 298.92 1468.11 298.172 1468.13 297.406H1465.44C1465.41 298.812 1465.89 300.18 1466.8 301.252L1468.86 299.509ZM1468.13 297.406V181.226H1465.44V297.406H1468.13ZM1468.13 181.226C1468.11 180.888 1468.16 180.549 1468.27 180.23C1468.38 179.911 1468.56 179.62 1468.79 179.373L1466.9 177.473C1466.41 177.969 1466.04 178.557 1465.79 179.202C1465.54 179.847 1465.43 180.535 1465.45 181.226H1468.13ZM1468.79 179.373C1469.05 179.101 1469.37 178.886 1469.72 178.743C1470.07 178.599 1470.44 178.53 1470.82 178.541V175.857C1470.09 175.84 1469.37 175.97 1468.7 176.24C1468.02 176.51 1467.41 176.913 1466.9 177.426L1468.79 179.373ZM1470.82 178.541H1479.55V175.857H1470.82V178.541ZM1479.55 178.541C1479.89 178.52 1480.22 178.577 1480.53 178.708C1480.83 178.839 1481.11 179.04 1481.33 179.295L1483.36 177.536C1482.89 176.985 1482.31 176.546 1481.64 176.252C1480.98 175.959 1480.26 175.818 1479.54 175.84L1479.55 178.541ZM1481.47 179.436C1481.72 179.652 1481.92 179.926 1482.05 180.234C1482.18 180.542 1482.24 180.876 1482.22 181.21H1484.92C1484.94 180.488 1484.79 179.771 1484.5 179.111C1484.21 178.451 1483.77 177.864 1483.22 177.395L1481.47 179.436ZM1482.22 181.21V222.03H1484.92V181.21H1482.22ZM1484.62 222.831C1487.65 218.856 1491.56 215.632 1496.04 213.41L1494.86 210.993C1490.01 213.396 1485.79 216.882 1482.5 221.182L1484.62 222.831ZM1496.07 213.41C1501.18 211.009 1506.78 209.858 1512.43 210.051V207.366C1506.36 207.166 1500.33 208.414 1494.84 211.008L1496.07 213.41ZM1512.43 210.051C1517.12 209.768 1521.82 210.555 1526.17 212.353C1530.51 214.15 1534.4 216.911 1537.52 220.429L1539.56 218.67C1536.19 214.864 1532 211.869 1527.31 209.909C1522.62 207.949 1517.55 207.074 1512.47 207.35L1512.43 210.051ZM1537.52 220.46C1543.91 228.21 1547.16 238.075 1546.63 248.108H1549.32C1549.84 237.421 1546.35 226.924 1539.53 218.686L1537.52 220.46ZM1546.63 248.108V297.468H1549.32V248.108H1546.63ZM1546.63 297.468C1546.64 297.845 1546.57 298.22 1546.43 298.568C1546.29 298.917 1546.07 299.233 1545.8 299.494L1547.7 301.393C1548.21 300.878 1548.61 300.265 1548.88 299.591C1549.15 298.917 1549.28 298.194 1549.27 297.468H1546.63ZM1545.8 299.494C1545.56 299.726 1545.27 299.904 1544.95 300.017C1544.63 300.131 1544.29 300.177 1543.95 300.153V302.837C1544.64 302.862 1545.33 302.746 1545.97 302.498C1546.62 302.25 1547.21 301.874 1547.7 301.393L1545.8 299.494ZM1543.95 300.153H1535.22V302.837H1543.95V300.153ZM1535.22 300.153C1534.45 300.177 1533.7 299.92 1533.12 299.431L1531.36 301.472C1532.43 302.387 1533.79 302.879 1535.2 302.854L1535.22 300.153ZM1533.27 299.573C1532.78 298.983 1532.53 298.234 1532.55 297.468H1529.85C1529.83 298.874 1530.31 300.241 1531.22 301.315L1533.27 299.573ZM1532.55 297.468V248.94H1529.85V297.421L1532.55 297.468ZM1532.55 248.987C1532.99 241.694 1530.69 234.501 1526.09 228.828L1524.08 230.618C1528.23 235.797 1530.29 242.346 1529.85 248.971L1532.55 248.987ZM1526.1 228.844C1523.78 226.349 1520.92 224.4 1517.75 223.141C1514.58 221.881 1511.17 221.341 1507.77 221.559V224.243C1510.79 224.029 1513.82 224.489 1516.63 225.592C1519.45 226.694 1521.99 228.411 1524.07 230.618L1526.1 228.844ZM1507.77 221.559C1504.32 221.415 1500.87 222.002 1497.66 223.281C1494.45 224.561 1491.54 226.505 1489.14 228.985L1491.08 230.837C1493.24 228.627 1495.85 226.899 1498.72 225.765C1501.6 224.632 1504.68 224.119 1507.77 224.26V221.559ZM1489.14 228.985C1484.32 234.502 1481.87 241.691 1482.3 249.003H1485C1484.57 242.386 1486.76 235.867 1491.1 230.854L1489.14 228.985ZM1482.3 249.003V297.485H1485V248.94L1482.3 249.003ZM1482.3 297.485C1482.31 297.862 1482.24 298.236 1482.1 298.585C1481.95 298.934 1481.74 299.249 1481.47 299.509L1483.36 301.41C1483.88 300.895 1484.28 300.281 1484.55 299.606C1484.82 298.932 1484.95 298.211 1484.93 297.485H1482.3ZM1481.47 299.509C1481.22 299.741 1480.93 299.92 1480.61 300.034C1480.29 300.147 1479.95 300.193 1479.62 300.169V302.854C1480.31 302.878 1480.99 302.762 1481.64 302.514C1482.28 302.265 1482.87 301.89 1483.36 301.41L1481.47 299.509ZM1479.62 300.169H1470.88V302.854H1479.62V300.169ZM1580.76 292.24L1579.79 293.167L1580.76 292.24ZM1569.05 261.782H1567.7H1569.05ZM1568.86 255.832H1567.53V255.911L1568.86 255.832ZM1569.05 250.054L1567.7 249.96L1569.05 250.054ZM1580.94 219.942L1579.98 219L1580.94 219.942ZM1639.52 221.167L1638.5 222.045L1639.52 221.167ZM1648.93 260.417L1649.88 261.374L1648.93 260.417ZM1585.63 261.469V260.119C1585.27 260.119 1584.92 260.26 1584.67 260.513C1584.42 260.767 1584.28 261.111 1584.28 261.469H1585.63ZM1585.63 263.038H1584.28H1585.63ZM1592.45 282.475L1591.38 283.307L1592.45 282.475ZM1622.53 287.185L1623.24 288.331L1622.53 287.185ZM1630.23 280.356L1629.15 279.555L1630.23 280.356ZM1632.51 277.907L1633.12 279.115H1633.21L1632.51 277.907ZM1646.62 278.252L1645.76 279.287L1646.62 278.252ZM1642.78 289.98L1641.78 289.085L1642.78 289.98ZM1629.32 299.399L1629.87 300.624L1629.32 299.399ZM1633.51 249.332V250.683C1633.87 250.683 1634.21 250.54 1634.46 250.287C1634.72 250.034 1634.86 249.691 1634.86 249.332H1633.51ZM1626.86 229.205L1625.83 230.069L1626.86 229.205ZM1591.88 229.205L1590.87 228.341L1591.88 229.205ZM1585.61 249.332H1584.26C1584.26 249.691 1584.4 250.034 1584.66 250.287C1584.91 250.54 1585.25 250.683 1585.61 250.683V249.332ZM1609.58 301.912C1604.45 302.157 1599.32 301.34 1594.52 299.511C1589.72 297.682 1585.34 294.881 1581.67 291.283L1579.76 293.167C1583.68 297.017 1588.35 300.019 1593.47 301.986C1598.6 303.952 1604.08 304.84 1609.56 304.596L1609.58 301.912ZM1581.69 291.298C1574.43 283.139 1570.39 272.612 1570.33 261.688L1567.65 261.829C1567.74 273.395 1572.04 284.532 1579.75 293.151L1581.69 291.298ZM1570.35 261.72L1570.18 255.769H1567.5L1567.67 261.72H1570.35ZM1570.18 255.848L1570.35 250.07L1567.65 249.992L1567.48 255.769L1570.18 255.848ZM1570.35 250.117C1570.56 239.293 1574.65 228.905 1581.88 220.852L1579.93 219C1572.27 227.508 1567.92 238.491 1567.67 249.945L1570.35 250.117ZM1581.86 220.852C1585.45 217.233 1589.75 214.404 1594.5 212.547C1599.24 210.69 1604.32 209.845 1609.4 210.066V207.382C1603.95 207.161 1598.52 208.079 1593.44 210.08C1588.37 212.08 1583.77 215.118 1579.93 219L1581.86 220.852ZM1609.4 210.066C1614.84 209.745 1620.27 210.654 1625.3 212.725C1630.33 214.797 1634.83 217.977 1638.47 222.03L1640.51 220.272C1636.62 215.926 1631.81 212.511 1626.42 210.28C1621.04 208.049 1615.22 207.058 1609.4 207.382V210.066ZM1638.48 222.03C1645.79 231.179 1649.47 242.707 1648.82 254.404H1651.52C1652.18 242.056 1648.27 229.898 1640.54 220.256L1638.48 222.03ZM1648.82 254.404V257.387H1651.52V254.404H1648.82ZM1648.82 257.387C1648.83 257.764 1648.76 258.139 1648.62 258.488C1648.47 258.836 1648.26 259.151 1647.99 259.411L1649.88 261.312C1650.4 260.796 1650.8 260.182 1651.07 259.508C1651.34 258.834 1651.47 258.113 1651.45 257.387H1648.82ZM1647.99 259.411C1647.74 259.643 1647.45 259.822 1647.13 259.935C1646.81 260.049 1646.47 260.095 1646.14 260.071V262.756C1646.83 262.78 1647.51 262.665 1648.16 262.416C1648.8 262.168 1649.39 261.792 1649.88 261.312L1647.99 259.411ZM1646.14 260.071H1585.63V262.756H1646.14V260.071ZM1584.28 261.421V262.991H1586.97V261.421H1584.28ZM1584.28 262.991C1584.45 270.31 1586.93 277.386 1591.38 283.197L1593.5 281.533C1589.39 276.164 1587.1 269.626 1586.96 262.866L1584.28 262.991ZM1591.4 283.212C1593.55 285.908 1596.29 288.067 1599.42 289.52C1602.54 290.972 1605.96 291.677 1609.4 291.581V288.896C1606.36 288.992 1603.33 288.374 1600.57 287.093C1597.81 285.812 1595.38 283.903 1593.48 281.517L1591.4 283.212ZM1609.4 291.581C1614.24 291.78 1619.03 290.616 1623.24 288.221L1621.83 285.929C1618.05 288.052 1613.75 289.074 1609.42 288.88L1609.4 291.581ZM1623.24 288.221C1626.37 286.375 1629.12 283.932 1631.31 281.03L1629.12 279.461C1627.12 282.071 1624.64 284.268 1621.81 285.929L1623.24 288.221ZM1631.28 281.062C1631.68 280.517 1632.1 279.993 1632.55 279.492C1632.68 279.352 1632.82 279.222 1632.96 279.1L1633.09 279.006L1631.88 276.603C1631.39 276.885 1630.95 277.245 1630.58 277.671C1630.07 278.239 1629.59 278.831 1629.13 279.445L1631.28 281.062ZM1633.16 278.958C1633.89 278.675 1634.68 278.563 1635.46 278.628V275.944C1634.19 275.864 1632.93 276.112 1631.79 276.666L1633.16 278.958ZM1635.46 278.628H1644.04V275.944H1635.46V278.628ZM1644.04 278.628C1644.67 278.596 1645.29 278.797 1645.79 279.193L1647.52 277.121C1646.54 276.318 1645.3 275.895 1644.04 275.928V278.628ZM1645.79 279.193C1645.99 279.368 1646.14 279.587 1646.24 279.833C1646.34 280.078 1646.38 280.344 1646.36 280.607H1649.04C1649.06 279.945 1648.93 279.286 1648.66 278.682C1648.39 278.078 1647.98 277.544 1647.47 277.121L1645.79 279.193ZM1646.36 280.607C1645.85 283.847 1644.24 286.811 1641.79 288.991L1643.8 290.796C1646.7 288.132 1648.56 284.519 1649.04 280.607H1646.36ZM1641.79 289.006C1638.14 292.932 1633.71 296.041 1628.77 298.128L1629.9 300.577C1635.18 298.328 1639.93 294.991 1643.83 290.781L1641.79 289.006ZM1628.79 298.112C1622.73 300.706 1616.18 301.98 1609.59 301.848V304.534C1616.57 304.668 1623.49 303.314 1629.9 300.562L1628.79 298.112ZM1634.89 249.269V248.752H1632.21V249.269H1634.89ZM1634.89 248.752C1635.21 241.283 1632.72 233.965 1627.91 228.247L1625.89 230.037C1630.25 235.268 1632.49 241.947 1632.16 248.752H1634.89ZM1627.93 228.341C1625.67 225.653 1622.82 223.519 1619.61 222.101C1616.4 220.683 1612.91 220.019 1609.4 220.161V222.862C1612.52 222.728 1615.62 223.31 1618.47 224.562C1621.32 225.814 1623.85 227.702 1625.86 230.084L1627.93 228.341ZM1609.4 220.161C1605.9 220.022 1602.41 220.687 1599.2 222.105C1596 223.522 1593.15 225.655 1590.9 228.341L1592.95 230.069C1594.96 227.687 1597.49 225.797 1600.34 224.545C1603.19 223.293 1606.29 222.713 1609.4 222.846V220.161ZM1590.88 228.341C1586.31 234.132 1583.96 241.375 1584.26 248.752H1586.96C1586.64 241.985 1588.77 235.33 1592.95 230.005L1590.88 228.341ZM1584.26 248.752V249.269H1586.96V248.752H1584.26ZM1585.61 250.619H1633.53V247.935H1585.61V250.619Z" fill="#51504F"/>
<path d="M1010.17 712.654C1007.83 712.599 1005.59 711.643 1003.94 709.986C1002.28 708.328 1001.33 706.096 1001.27 703.752C1001.2 702.107 1001.34 700.46 1001.71 698.855L1111.91 411.105C1112.82 408.103 1114.72 405.5 1117.3 403.723C1119.89 401.945 1123 401.1 1126.12 401.324H1156.33C1159.46 401.099 1162.57 401.945 1165.15 403.722C1167.74 405.499 1169.64 408.102 1170.55 411.105L1280.35 698.855L1281.24 703.752C1281.18 706.093 1280.22 708.321 1278.56 709.977C1276.91 711.633 1274.68 712.591 1272.35 712.654H1249.68C1246.98 712.823 1244.3 712.035 1242.12 710.426C1240.55 708.942 1239.34 707.115 1238.58 705.087L1214.14 641.926H1068.4L1043.97 705.087C1043.14 707.195 1041.76 709.04 1039.97 710.426C1037.94 711.989 1035.42 712.779 1032.86 712.654H1010.17ZM1201.22 603.696L1141.24 445.818L1081.28 603.681L1201.22 603.696ZM1329.58 438.25C1328.2 438.399 1326.81 438.236 1325.5 437.775C1324.19 437.314 1323.01 436.567 1322.03 435.586C1321.05 434.606 1320.3 433.418 1319.83 432.111C1319.37 430.803 1319.21 429.409 1319.35 428.03V404.008C1319.28 401.243 1320.23 398.548 1322.02 396.441C1323 395.428 1324.17 394.627 1325.47 394.086C1326.77 393.546 1328.17 393.279 1329.58 393.301H1357.57C1358.98 393.294 1360.37 393.567 1361.66 394.101C1362.96 394.635 1364.14 395.421 1365.13 396.414C1366.12 397.407 1366.91 398.586 1367.44 399.884C1367.98 401.182 1368.25 402.573 1368.24 403.977V427.998C1368.26 429.405 1367.99 430.8 1367.45 432.099C1366.91 433.398 1366.12 434.573 1365.1 435.55C1363 437.341 1360.32 438.291 1357.56 438.219L1329.58 438.25ZM1333.14 712.671C1331.76 712.816 1330.37 712.652 1329.06 712.189C1327.75 711.726 1326.57 710.977 1325.59 709.995C1324.6 709.014 1323.86 707.826 1323.39 706.518C1322.93 705.21 1322.77 703.814 1322.91 702.434V491.614C1322.85 490.31 1323.05 489.005 1323.51 487.782C1323.97 486.559 1324.67 485.444 1325.58 484.502C1326.56 483.489 1327.73 482.687 1329.03 482.147C1330.33 481.607 1331.73 481.34 1333.14 481.362H1354.45C1357.13 481.467 1359.67 482.577 1361.56 484.471C1363.46 486.365 1364.57 488.904 1364.68 491.583V702.387C1364.7 703.796 1364.44 705.195 1363.9 706.497C1363.36 707.799 1362.56 708.975 1361.54 709.954C1360.6 710.858 1359.49 711.561 1358.27 712.02C1357.04 712.479 1355.74 712.684 1354.44 712.623L1333.14 712.671ZM1440.75 712.671C1439.37 712.817 1437.98 712.652 1436.67 712.189C1435.37 711.726 1434.18 710.976 1433.2 709.994C1432.22 709.013 1431.47 707.824 1431.01 706.516C1430.55 705.208 1430.39 703.813 1430.54 702.434V492.054C1430.47 489.295 1431.42 486.606 1433.2 484.502C1434.18 483.489 1435.36 482.687 1436.66 482.147C1437.96 481.607 1439.36 481.34 1440.77 481.362H1461.15C1462.56 481.356 1463.95 481.628 1465.24 482.162C1466.54 482.697 1467.72 483.483 1468.71 484.476C1469.7 485.468 1470.49 486.647 1471.02 487.945C1471.56 489.243 1471.83 490.634 1471.82 492.038V511.601C1478.44 501.354 1487.74 493.118 1498.7 487.787C1509.67 482.457 1521.88 480.235 1534.02 481.362H1551.28C1553.95 481.47 1556.48 482.582 1558.38 484.476C1560.27 486.369 1561.38 488.907 1561.49 491.583V509.811C1561.54 511.157 1561.28 512.496 1560.74 513.728C1560.19 514.96 1559.38 516.053 1558.35 516.923C1557.41 517.828 1556.29 518.531 1555.07 518.99C1553.85 519.449 1552.55 519.653 1551.24 519.592H1524.58C1517.65 519.22 1510.71 520.293 1504.21 522.744C1497.7 525.195 1491.78 528.97 1486.82 533.831C1482.08 538.87 1478.41 544.819 1476.04 551.317C1473.67 557.816 1472.65 564.729 1473.03 571.637V702.387C1473.05 703.796 1472.78 705.194 1472.24 706.496C1471.7 707.797 1470.9 708.975 1469.89 709.954C1467.78 711.744 1465.09 712.694 1462.33 712.623L1440.75 712.671ZM1632.63 712.671C1631.26 712.814 1629.86 712.647 1628.56 712.183C1627.25 711.719 1626.07 710.97 1625.09 709.989C1624.11 709.008 1623.36 707.82 1622.9 706.513C1622.44 705.206 1622.28 703.812 1622.42 702.434V516.954H1584.65C1583.28 517.1 1581.89 516.936 1580.58 516.473C1579.28 516.011 1578.09 515.264 1577.11 514.284C1576.13 513.304 1575.38 512.117 1574.92 510.811C1574.46 509.505 1574.3 508.112 1574.44 506.734V491.614C1574.38 490.31 1574.58 489.005 1575.04 487.782C1575.5 486.559 1576.2 485.444 1577.11 484.502C1578.08 483.49 1579.26 482.688 1580.56 482.148C1581.85 481.608 1583.25 481.34 1584.65 481.362H1622.42V459.115C1622.42 408.708 1647.89 383.509 1698.84 383.52H1723.71C1726.39 383.624 1728.93 384.734 1730.82 386.628C1732.72 388.523 1733.83 391.062 1733.94 393.741V408.86C1733.96 410.266 1733.69 411.661 1733.15 412.96C1732.61 414.259 1731.81 415.434 1730.8 416.412C1729.86 417.316 1728.74 418.018 1727.52 418.477C1726.3 418.936 1725 419.141 1723.69 419.081H1699.71C1694.54 418.518 1689.3 419.192 1684.43 421.048C1679.57 422.904 1675.21 425.888 1671.72 429.756C1665.67 439.122 1662.86 450.212 1663.72 461.329V481.347H1758.8V393.772C1758.74 392.468 1758.94 391.164 1759.4 389.941C1759.86 388.718 1760.56 387.602 1761.46 386.66C1762.44 385.647 1763.62 384.845 1764.92 384.305C1766.22 383.765 1767.61 383.498 1769.02 383.52H1789.41C1792.09 383.624 1794.63 384.734 1796.52 386.628C1798.42 388.523 1799.53 391.062 1799.64 393.741V702.387C1799.66 703.796 1799.4 705.195 1798.86 706.497C1798.32 707.799 1797.52 708.975 1796.5 709.954C1795.56 710.86 1794.44 711.564 1793.22 712.023C1791.99 712.482 1790.69 712.686 1789.38 712.623H1768.99C1767.61 712.772 1766.22 712.609 1764.91 712.148C1763.6 711.686 1762.41 710.936 1761.43 709.954C1760.45 708.972 1759.7 707.783 1759.24 706.474C1758.78 705.164 1758.62 703.767 1758.77 702.387V516.954H1663.69V702.418C1663.71 703.827 1663.44 705.226 1662.9 706.527C1662.36 707.829 1661.56 709.006 1660.55 709.986C1659.61 710.891 1658.49 711.595 1657.26 712.054C1656.04 712.512 1654.73 712.717 1653.43 712.654L1632.63 712.671ZM1960.43 717.113C1946.56 717.954 1932.66 715.94 1919.59 711.196C1906.53 706.452 1894.57 699.078 1884.46 689.529C1866.04 669.555 1855.88 643.329 1856.02 616.147L1855.57 597.024L1856.02 577.901C1855.94 550.779 1866.28 524.664 1884.9 504.959C1905.92 486.88 1932.71 476.94 1960.43 476.94C1988.14 476.94 2014.94 486.88 2035.96 504.959C2054.57 524.668 2064.9 550.78 2064.83 577.901C2065.12 581.156 2065.27 587.531 2065.27 597.024C2065.27 606.517 2065.12 612.892 2064.83 616.147C2064.96 643.409 2054.62 669.679 2035.96 689.529C2025.94 699.102 2014.05 706.494 2001.04 711.239C1988.03 715.984 1974.18 717.979 1960.36 717.098L1960.43 717.113ZM1960.43 682.872C1968.61 683.287 1976.77 681.91 1984.36 678.838C1991.94 675.765 1998.77 671.072 2004.35 665.084C2016.23 650.731 2022.54 632.569 2022.12 613.933C2022.42 610.971 2022.56 605.339 2022.56 597.039C2022.56 588.739 2022.42 583.108 2022.12 580.146C2022.54 561.511 2016.23 543.349 2004.35 528.996C1998.77 523.008 1991.94 518.315 1984.36 515.242C1976.77 512.17 1968.61 510.792 1960.43 511.208C1952.19 510.81 1943.95 512.193 1936.28 515.262C1928.62 518.331 1921.7 523.015 1916 528.996C1904.18 543.35 1898.04 561.555 1898.75 580.146L1898.31 597.039L1898.75 613.933C1898.04 632.525 1904.18 650.73 1916 665.084C1921.69 671.052 1928.6 675.727 1936.25 678.793C1943.9 681.859 1952.12 683.244 1960.36 682.856L1960.43 682.872ZM2176.17 712.701C2172.99 712.909 2169.84 711.962 2167.3 710.033C2164.86 707.694 2163.03 704.795 2161.96 701.587L2098.86 495.225L2097.99 490.783C2097.95 489.547 2098.17 488.317 2098.63 487.169C2099.09 486.021 2099.78 484.98 2100.65 484.109C2102.47 482.429 2104.84 481.479 2107.32 481.441H2126.86C2128.17 481.379 2129.47 481.584 2130.69 482.043C2131.91 482.501 2133.03 483.205 2133.97 484.109C2135.79 485.274 2137.19 486.99 2137.97 489.008L2187.29 656.669L2240.17 490.783C2240.8 488.316 2242.2 486.116 2244.17 484.502C2245.28 483.432 2246.61 482.602 2248.06 482.062C2249.51 481.522 2251.06 481.284 2252.6 481.362H2267.71C2269.26 481.284 2270.8 481.522 2272.26 482.062C2273.71 482.602 2275.04 483.432 2276.16 484.502C2278.13 486.115 2279.53 488.316 2280.16 490.783L2333.03 656.669L2382.34 489.008C2382.9 487.107 2383.99 485.406 2385.48 484.109C2387.59 482.317 2390.28 481.366 2393.04 481.441H2413.04C2414.21 481.428 2415.37 481.659 2416.45 482.118C2417.53 482.578 2418.51 483.255 2419.31 484.109C2420.19 484.98 2420.88 486.022 2421.34 487.169C2421.79 488.317 2422.01 489.547 2421.98 490.783L2421.08 495.225L2358.44 701.587C2357.38 704.795 2355.55 707.693 2353.11 710.033C2350.39 712.017 2347.05 712.963 2343.7 712.701H2326.45C2323.05 713.05 2319.65 712.097 2316.93 710.035C2314.2 707.972 2312.36 704.953 2311.78 701.587L2260.24 542.372L2208.7 701.587C2207.9 704.924 2205.94 707.869 2203.18 709.902C2200.41 711.936 2197.02 712.927 2193.6 712.701H2176.17Z" fill="#51504F"/>
</svg>