<svg width="3058" height="735" viewBox="0 0 3058 735" fill="none" xmlns="http://www.w3.org/2000/svg">
<path d="M925 345.499C925 208.165 1013.09 113 1139.65 113C1188.72 113 1233.32 126.676 1269 154.029V240.077C1231.09 203.606 1188.16 185.371 1141.88 185.371C1056.02 185.371 1000.83 246.915 1000.83 345.499C1000.83 442.375 1056.02 505.629 1141.88 505.629C1188.16 505.629 1230.53 487.393 1269 450.923V536.97C1233.32 564.323 1188.72 578 1139.65 578C1013.09 578 925 482.833 925 345.499Z" fill="#090051"/>
<path d="M1652.44 429.74H1431.13C1437.82 485.621 1471.82 512.993 1531.47 512.993C1571.05 512.993 1607.29 502.159 1635.72 482.202V548.917C1606.73 567.736 1569.38 578 1529.24 578C1426.11 578 1362 512.993 1362 409.21C1362 307.14 1423.32 237 1513.07 237C1596.69 237 1653 302.007 1653 400.657V429.74H1652.44ZM1432.8 373.856H1586.1C1581.08 325.386 1556 300.296 1513.63 300.296C1470.15 299.726 1441.16 326.527 1432.8 373.856Z" fill="#090051"/>
<path d="M2015 356.124V571H1944.59V369.804C1944.59 328.765 1921.69 304.257 1885.37 304.257C1855.19 304.257 1827.81 321.925 1814.4 350.424V571H1744V243.841H1809.37V291.148C1830.61 256.38 1864.13 237 1905.48 237C1971.98 237 2015 284.307 2015 356.124Z" fill="#090051"/>
<path d="M2108 548.968V475.966C2140.87 502.202 2179.33 514.749 2224.46 514.749C2266.83 514.749 2286.88 503.342 2286.88 479.389C2286.88 460.567 2275.74 449.161 2250.65 443.459L2190.49 429.771C2139.21 417.794 2111.9 385.855 2111.9 337.948C2111.9 275.782 2160.94 237 2241.18 237C2280.76 237 2315.3 245.556 2340.39 261.524V334.525C2312.53 311.142 2279.09 299.165 2240.08 299.165C2200.5 299.165 2179.89 311.713 2179.89 335.096C2179.89 352.206 2191.03 363.042 2213.32 367.605L2273.51 381.864C2327.56 394.981 2356 425.778 2356 473.685C2356 538.132 2304.72 576.914 2221.69 576.914C2177.66 578.055 2139.21 567.789 2108 548.968Z" fill="#090051"/>
<path d="M2646.55 246H2717V572.17H2653.26V523.216C2632.01 559.078 2599 579 2557.06 579C2492.19 579 2448 531.185 2448 460.601V246H2518.47V446.37C2518.47 486.784 2541.96 511.83 2577.75 511.83C2607.96 511.83 2634.24 494.185 2647.09 464.584V246H2646.55Z" fill="#090051"/>
<path d="M2810 548.968V475.966C2842.87 502.202 2881.33 514.749 2926.46 514.749C2968.83 514.749 2988.88 503.342 2988.88 479.389C2988.88 460.567 2977.74 449.161 2952.65 443.459L2892.49 429.771C2841.21 417.794 2813.89 385.855 2813.89 337.948C2813.89 275.782 2862.94 237 2943.18 237C2982.76 237 3017.32 245.556 3042.39 261.524V334.525C3014.53 311.142 2981.09 299.165 2942.08 299.165C2902.5 299.165 2881.89 311.713 2881.89 335.096C2881.89 352.206 2893.03 363.042 2915.32 367.605L2975.51 381.864C3029.56 394.981 3058 425.778 3058 473.685C3058 538.132 3006.72 576.914 2923.69 576.914C2879.1 578.055 2841.21 567.789 2810 548.968Z" fill="#090051"/>
<path d="M832 368.068L646.432 39.822C632.5 15.3599 606.866 0 579.002 0H253C225.136 0 199.502 15.3599 185.57 39.822L162.165 81.3507H578.444L532.191 162.701H115.912L69.6584 244.62H485.938L439.685 325.972H23.4053L0 368.068L22.848 407.89H439.127L484.824 489.242H68.544L114.797 570.592H531.077L577.33 651.943H161.05L185.57 695.178C199.502 719.64 225.136 735 253 735H579.002C606.866 735 632.5 719.64 646.432 695.178L832 368.068Z" fill="#EF54AC"/>
</svg>