<svg width="3987" height="642" viewBox="0 0 3987 642" fill="none" xmlns="http://www.w3.org/2000/svg">
<path d="M425.335 339.288C406.16 326.837 384.68 317.468 360.893 311.235C337.09 305.018 313.301 299.911 289.498 295.984C271.66 292.708 254.794 289.75 238.946 287.107C223.082 284.483 209.191 281.19 197.306 277.246C185.421 273.299 176.142 268.229 169.557 261.975C162.937 255.761 159.626 247.693 159.626 237.85C159.626 220.785 166.722 207.665 180.931 198.472C195.122 189.28 214.156 184.683 237.943 184.683C287.524 184.683 317.281 203.386 327.176 240.791H471.925C464.653 194.862 442.187 157.598 404.506 129.033C366.845 100.486 311.295 86.2041 237.943 86.2041C206.866 86.2041 177.797 89.6381 150.682 96.5415C123.585 103.445 100.149 113.782 80.3238 127.572C60.4981 141.361 44.7925 158.426 33.2248 178.766C21.6568 199.124 15.864 222.758 15.864 249.649C15.864 280.502 21.3222 305.439 32.221 324.477C43.1376 343.532 57.4873 358.941 75.3586 370.776C93.1946 382.592 113.355 391.452 135.822 397.368C158.288 403.284 181.424 408.532 205.211 413.111C223.716 416.406 241.077 419.522 257.274 422.48C273.458 425.421 287.841 429.225 300.412 433.823C312.967 438.419 322.879 444.318 330.17 451.538C337.441 458.777 341.087 468.286 341.087 480.085C341.087 499.14 333.478 513.897 318.284 524.412C303.072 534.907 281.608 540.155 253.859 540.155C223.452 540.155 199.155 533.587 180.984 520.467C162.796 507.346 151.386 488.31 146.791 463.356H0C1.98961 489.614 9.06769 513.74 21.3047 535.719C33.5239 557.732 50.3741 576.573 71.8723 592.336C93.3356 608.081 119.288 620.248 149.696 628.774C180.086 637.297 214.473 641.576 252.803 641.576C287.155 641.576 318.901 637.966 347.971 630.746C377.057 623.524 402.164 612.711 423.329 598.254C444.476 583.829 460.991 565.761 472.91 544.101C484.813 522.44 490.745 497.502 490.745 469.273C490.745 436.464 484.62 409.695 472.399 389.019C460.182 368.346 444.51 351.774 425.335 339.288Z" fill="white"/>
<path d="M1434.63 261.996C1420.76 219.324 1398.94 183.575 1369.19 154.676C1346.05 133.684 1319.44 117.253 1289.37 105.436C1259.28 93.6017 1225.44 87.7197 1187.76 87.7197C1147.44 87.7197 1110.75 94.7815 1077.72 108.87C1044.67 122.994 1016.25 142.507 992.446 167.443C968.659 192.398 950.136 221.772 936.913 255.568C923.673 289.397 917.087 325.956 917.087 365.353C917.087 404.749 923.53 441.167 936.419 474.645C949.308 508.122 967.797 537.338 991.954 562.275C1016.07 587.23 1045.32 606.759 1079.69 620.85C1114.04 634.955 1152.72 642.001 1195.68 642.001C1229.4 642.001 1260.13 637.88 1287.89 629.691C1315.64 621.499 1339.96 610.001 1360.75 595.225C1381.58 580.451 1399.08 563.068 1413.29 543.044C1427.48 523.022 1437.89 501.537 1444.53 478.555H1293.81C1285.22 494.967 1273.16 507.594 1257.63 516.452C1242.1 525.329 1222.1 529.748 1197.64 529.748C1159.98 529.748 1130.54 518.601 1109.39 496.27C1088.23 473.976 1075.01 443.103 1069.72 403.709H1454.42C1455.11 351.933 1448.51 304.665 1434.63 261.996ZM1070.76 314.194C1076.04 278.11 1087.93 249.546 1106.43 228.535C1124.94 207.543 1152.04 197.012 1187.74 197.012C1218.8 197.012 1243.91 207.349 1263.1 228.024C1282.26 248.7 1293.18 277.422 1295.82 314.177L1070.76 314.194Z" fill="white"/>
<path d="M3967.16 544.577V275.767C3967.16 240.317 3960.72 209.287 3947.83 182.729C3934.92 156.137 3914.6 134.969 3886.84 119.225C3868.33 108.078 3846.82 100.012 3822.38 95.0987C3797.94 90.1851 3768.85 87.7197 3735.16 87.7197C3696.14 87.7197 3662.1 92.4923 3633.01 102.002C3603.92 111.529 3579.79 124.332 3560.66 140.393C3541.47 156.489 3526.97 175.034 3517.03 196.025C3507.1 217.035 3501.82 238.696 3501.14 261.01H3644.9C3646.89 240.017 3655.32 223.269 3670.19 210.801C3685.07 198.333 3707.37 192.098 3737.12 192.098C3764.22 192.098 3784.04 197.857 3796.59 209.339C3809.16 220.857 3815.43 236.09 3815.43 255.128C3815.43 274.817 3805.02 289.274 3784.21 298.449C3763.4 307.66 3729.51 315.531 3682.59 322.065C3653.53 325.358 3626.4 330.114 3601.3 336.348C3576.19 342.581 3554.36 351.599 3535.85 363.414C3517.35 375.233 3502.67 390.658 3491.77 409.679C3480.87 428.734 3475.4 452.685 3475.4 481.567C3475.4 507.153 3479.85 529.978 3488.81 549.982C3497.73 570.023 3510.28 586.595 3526.46 599.717C3542.64 612.853 3561.82 622.856 3583.96 629.742C3606.12 636.646 3630.08 640.079 3655.85 640.079C3696.84 640.079 3729.39 633.177 3753.52 619.404C3777.62 605.616 3798.28 586.595 3815.48 562.292H3817.47C3818.75 577.403 3821.07 590.348 3824.39 601.194C3827.71 612.026 3831.32 620.409 3835.32 626.292H3987V617.432C3973.75 608.925 3967.16 584.623 3967.16 544.577ZM3819.43 438.226C3819.43 467.125 3809.01 491.076 3788.2 510.114C3767.4 529.169 3739.47 538.659 3704.44 538.659C3683.27 538.659 3665.11 534.063 3649.89 524.871C3634.68 515.679 3627.1 499.616 3627.1 476.617C3627.1 453.652 3635.36 436.906 3651.88 426.408C3668.4 415.93 3693.86 407.055 3728.21 399.816C3745.38 395.872 3762.07 391.787 3778.27 387.506C3794.45 383.228 3808.19 377.505 3819.43 370.266V438.226Z" fill="white"/>
<path d="M862.502 227.39V124.156H761.879V0H614.558V124.156H535.169V227.407H614.558V499.686C614.558 593.499 663.614 635.325 773.623 635.325C813.292 635.325 841.957 632.084 857.008 628.844V521.735C855.935 521.771 854.809 521.822 853.629 521.859C846.111 522.157 836.586 522.527 827.835 522.527C797.111 522.527 761.86 515.889 761.86 464.129V227.39H862.502Z" fill="white"/>
<path d="M2229.87 93.9697C2124.09 93.9697 2038.03 180.051 2038.03 285.856V439.632C2038.03 473.129 2010.77 500.389 1977.28 500.389C1943.79 500.389 1916.55 473.129 1916.55 439.632V285.856C1916.55 180.051 1830.49 93.9697 1724.71 93.9697C1618.93 93.9697 1532.86 180.051 1532.86 285.856V626.29H1663.96V285.856C1663.96 252.361 1691.22 225.117 1724.71 225.117C1758.2 225.117 1785.45 252.361 1785.45 285.856V439.632C1785.45 545.438 1871.52 631.518 1977.3 631.518C2083.08 631.518 2169.15 545.438 2169.15 439.632V285.856C2169.15 252.361 2196.4 225.117 2229.89 225.117C2263.38 225.117 2290.62 252.361 2290.62 285.856V630.445H2421.72V285.856C2421.72 180.051 2335.66 93.9697 2229.87 93.9697Z" fill="white"/>
<path d="M3205.85 93.9697C3100.04 93.9697 3013.98 180.051 3013.98 285.856V439.632C3013.98 473.129 2986.73 500.389 2953.25 500.389C2919.76 500.389 2892.53 473.129 2892.53 439.632V285.856C2892.53 180.051 2806.47 93.9697 2700.66 93.9697C2594.88 93.9697 2508.82 180.051 2508.82 285.856V626.29H2639.94V285.856C2639.94 252.361 2667.19 225.117 2700.66 225.117C2734.16 225.117 2761.41 252.361 2761.41 285.856V439.632C2761.41 545.438 2847.48 631.518 2953.25 631.518C3059.06 631.518 3145.12 545.438 3145.12 439.632V285.856C3145.12 252.361 3172.37 225.117 3205.85 225.117C3239.35 225.117 3266.57 252.361 3266.57 285.856V630.445H3397.69V285.856C3397.69 180.051 3311.63 93.9697 3205.85 93.9697Z" fill="white"/>
</svg>